<svg xmlns="http://www.w3.org/2000/svg" viewBox="0 0 90 90"><path d="M79.8 84H10.3c-3.3 0-6-2.7-6-6V35.8c0-3.3 2.7-6 6-6h69.5c3.3 0 6 2.7 6 6V78c0 3.3-2.7 6-6 6zM10.3 31.8c-2.2 0-4 1.8-4 4V78c0 2.2 1.8 4 4 4h69.5c2.2 0 4-1.8 4-4V35.8c0-2.2-1.8-4-4-4H10.3z"/><path d="M64.3 77H17c-3.3 0-6-2.7-6-6V42.9c0-3.3 2.7-6 6-6h47.3c3.3 0 6 2.7 6 6V71c0 3.3-2.7 6-6 6zM17 38.9c-2.2 0-4 1.8-4 4V71c0 2.2 1.8 4 4 4h47.3c2.2 0 4-1.8 4-4V42.9c0-2.2-1.8-4-4-4H17zM76.9 52.5c-2.7 0-4.9-2.2-4.9-4.9s2.2-4.9 4.9-4.9 4.9 2.2 4.9 4.9-2.2 4.9-4.9 4.9zm0-7.8c-1.6 0-2.9 1.3-2.9 2.9s1.3 2.9 2.9 2.9 2.9-1.3 2.9-2.9-1.3-2.9-2.9-2.9zM76.9 69.4c-2.7 0-4.9-2.2-4.9-4.9s2.2-4.9 4.9-4.9 4.9 2.2 4.9 4.9-2.2 4.9-4.9 4.9zm0-7.8c-1.6 0-2.9 1.3-2.9 2.9s1.3 2.9 2.9 2.9 2.9-1.3 2.9-2.9-1.3-2.9-2.9-2.9zM51.8 31.8c-.5 0-.9-.3-1-.8-.2-1.1-.8-2.1-1.6-2.9-1.1-1.1-2.6-1.7-4.2-1.7s-3.1.6-4.2 1.7c-.8.8-1.4 1.8-1.6 2.9-.1.5-.6.9-1.2.8-.5-.1-.9-.7-.8-1.2.3-1.5 1.1-2.8 2.1-3.9 1.5-1.5 3.5-2.3 5.6-2.3s4.1.8 5.6 2.3c1.1 1.1 1.8 2.4 2.2 3.9.1.5-.2 1.1-.8 1.2h-.1z"/><path d="M49.9 28.4c-.2 0-.4-.1-.6-.2-.4-.3-.5-1-.2-1.4L64.4 6.4c.3-.4 1-.5 1.4-.2.4.3.5 1 .2 1.4L50.7 28c-.2.2-.5.4-.8.4zM40.1 28.4c-.3 0-.6-.1-.8-.4L24 7.6c-.3-.4-.2-1.1.2-1.4.4-.3 1.1-.2 1.4.2l15.3 20.4c.3.4.2 1.1-.2 1.4-.2.1-.4.2-.6.2z"/></svg>